<svg xmlns="http://www.w3.org/2000/svg" width="768" height="591" viewBox="0 0 768 591" version="1.1">
	<path d="M 211.457 203.863 C 207.022 206.568, 203.210 211.508, 201.951 216.182 C 200.407 221.914, 201.246 302.791, 202.913 309 C 208.112 328.361, 226.587 346.074, 245.726 350.047 C 253.868 351.737, 270.053 350.795, 277.254 348.213 C 290.394 343.499, 302.662 332.556, 309.098 319.805 C 319.718 298.767, 315.177 272.822, 297.905 255.851 C 291.295 249.356, 279.151 242.796, 270.361 240.971 C 264.803 239.817, 249.252 240.139, 242.369 241.550 L 239.237 242.192 238.847 228.823 C 238.488 216.567, 238.237 215.080, 235.826 210.966 C 232.352 205.038, 226.939 201.999, 219.864 202.004 C 216.405 202.006, 213.420 202.666, 211.457 203.863 M 332.316 203.943 C 329.683 205.139, 327.088 207.421, 325.316 210.099 L 322.500 214.354 322.500 276.513 L 322.500 338.671 325.227 342.607 C 329.207 348.349, 333.316 350.457, 340.573 350.481 C 348.259 350.505, 353.740 347.235, 356.879 340.750 C 358.968 336.435, 359 335.462, 359 276.652 C 359 213.138, 358.988 212.961, 354.212 207.680 C 349.215 202.154, 339.797 200.547, 332.316 203.943 M 533 241.625 C 517.469 244.635, 503.744 253.619, 495.232 266.346 C 488.284 276.732, 486.500 282.997, 486.500 297 C 486.500 311.093, 488.693 318.401, 496.078 328.917 C 510.325 349.205, 535.913 357.769, 560.250 350.395 C 562.336 349.763, 562.426 350.881, 560.882 358.201 C 560.002 362.369, 558.846 364.386, 555.466 367.652 C 553.103 369.935, 549.681 372.131, 547.861 372.530 C 532.837 375.830, 527.007 392.543, 537.072 403.463 C 544.408 411.421, 553.316 411.715, 567.766 404.476 C 580.489 398.102, 590.234 387.236, 595.743 373.280 L 598.420 366.500 598.791 329 C 599.202 287.330, 598.808 283.506, 592.892 271.786 C 589.286 264.643, 579.939 254.453, 572.777 249.857 C 564.418 244.493, 555.681 241.858, 545 241.478 C 539.775 241.292, 534.375 241.358, 533 241.625 M 254.236 277.019 C 245.016 279.094, 238.355 287.931, 239.220 296.941 C 240.893 314.345, 262.287 320.375, 273.447 306.587 C 276.229 303.149, 276.500 302.165, 276.500 295.500 C 276.500 288.835, 276.229 287.851, 273.447 284.413 C 268.564 278.381, 261.044 275.486, 254.236 277.019 M 538.431 278.942 C 533.558 280.103, 529.174 283.141, 526.227 287.397 C 523.968 290.660, 523.503 292.399, 523.517 297.528 C 523.531 302.636, 524.015 304.414, 526.281 307.684 C 530.121 313.225, 535.919 316.273, 542.507 316.214 C 551.408 316.134, 558.349 310.780, 560.491 302.344 C 563.943 288.751, 551.711 275.775, 538.431 278.942 M 168.180 317.682 C 162.599 320.432, 159.629 325.316, 159.249 332.370 C 158.841 339.954, 161.567 345.342, 167.520 348.713 C 183.114 357.545, 200.075 340.829, 191.675 324.907 C 187.449 316.896, 176.566 313.549, 168.180 317.682" stroke="none" fill="#000000" fill-rule="evenodd"/>
</svg>